PathFileType	4	(X/Y/Z)	\\147.46.242.158\로컬 디스크 (e)\MOCAP Data\Iguana Capture\iguana\Project 2\Capture day 7\Session 2\Take12.trc
DataRate	CameraRate	NumFrames	NumMarkers	Units	OrigDataRate	OrigDataStartFrame	OrigNumFrames
120.0	120.0	14	23	mm	120.0	356	16798
Frame#	Time	ana:head1			ana:head2			ana:bone1			ana:bone2			ana:bone3			ana:tail1			ana:tail2			ana:tail3			ana:tail4			ana:Rforefoot1			ana:Rforefoot2			ana:Rforefoot3			ana:Lforefoot1			ana:Lforefoot2			ana:Lforefoot3			ana:RhindLeg1			ana:RhindLeg2			ana:RhindLeg3			ana:RhindLeg4			ana:LhindLeg1			ana:LhindLeg2			ana:LhindLeg3			ana:LhindLeg4			
		X1	Y1	Z1	X2	Y2	Z2	X3	Y3	Z3	X4	Y4	Z4	X5	Y5	Z5	X6	Y6	Z6	X7	Y7	Z7	X8	Y8	Z8	X9	Y9	Z9	X10	Y10	Z10	X11	Y11	Z11	X12	Y12	Z12	X13	Y13	Z13	X14	Y14	Z14	X15	Y15	Z15	X16	Y16	Z16	X17	Y17	Z17	X18	Y18	Z18	X19	Y19	Z19	X20	Y20	Z20	X21	Y21	Z21	X22	Y22	Z22	X23	Y23	Z23	

2585	21.533	387.75790	125.35539	20.71716	378.35098	127.64916	25.94018	356.54233	131.90012	31.94597	326.17596	140.89738	35.57525	292.82510	142.99216	25.53070	268.12064	125.70671	13.61922	256.55386	89.43130	7.07014	269.39160	47.70752	6.83994	291.94638	12.21155	5.40940	355.58142	120.12395	15.82418	349.78830	104.50012	13.66501	363.40103	103.03335	1.91499	354.52341	143.35374	19.34493	346.60736	154.08211	18.98310	343.90048	151.52950	2.74631	296.05499	135.36948	22.53513	310.47559	123.46338	29.21136	301.62363	117.88638	10.43028	310.55789	119.19653	13.49272	288.83548	149.67709	18.02504	272.84717	153.71674	13.38449	251.68365	147.79509	3.97684	249.56305	157.34935	3.47957	
2586	21.542	387.84564	125.35928	20.76346	378.45142	127.59817	26.02855	356.64575	131.94786	31.98701	326.33478	141.05611	35.65978	292.98782	143.20320	25.56211	268.27307	125.84826	13.65343	256.55554	89.92065	7.06773	269.28009	47.97382	6.92139	291.86545	12.50219	5.38410	355.61603	120.14845	15.82459	349.83417	104.54040	13.67925	363.38263	103.13760	1.87466	354.64359	143.46098	19.40749	346.71133	154.13890	18.99578	343.89963	151.52464	2.74251	296.32373	135.55328	22.55679	310.39935	123.34831	29.06686	301.38889	118.17772	10.30740	310.12796	119.35926	13.38175	289.00241	149.88181	18.02382	272.94519	153.84929	13.40250	251.84575	147.91473	4.07055	249.62029	157.44791	3.52370	
2587	21.550	387.91611	125.35432	20.88988	378.53732	127.55277	26.15493	356.73059	131.98613	32.03179	326.45355	141.18396	35.73711	293.19968	143.39928	25.59567	268.38968	125.98853	13.68159	256.55627	90.34476	7.07475	269.17999	48.19885	7.00321	291.80353	12.69117	5.36541	355.67795	120.05087	15.91102	349.84088	104.58926	13.63502	363.35089	103.28166	1.81846	354.75443	143.56828	19.50157	346.78595	154.17792	18.99463	343.89886	151.52151	2.74044	296.59088	135.71417	22.55980	310.32547	123.21181	28.89057	301.14050	118.58163	10.09959	309.78394	119.55148	13.19049	289.12799	150.05182	17.99919	273.03445	153.95595	13.40209	251.98865	148.05743	4.18244	249.64786	157.57001	3.56830	
2588	21.558	387.97156	125.32533	21.10818	378.61539	127.54185	26.33669	356.82056	132.02115	32.09415	326.54117	141.27165	35.78065	293.43100	143.56966	25.62123	268.47464	126.13469	13.70997	256.56680	90.66631	7.08633	269.09286	48.38148	7.07969	291.75720	12.78151	5.35407	355.74051	119.74555	16.11092	349.78830	104.68730	13.54669	363.32919	103.38120	1.78086	354.84207	143.64281	19.58504	346.83948	154.21098	18.99690	343.89832	151.51649	2.73596	296.86224	135.76408	22.55968	310.25104	123.06507	28.66854	300.88669	119.07037	9.80450	309.65332	119.64243	12.92014	289.21814	150.18504	17.95581	273.11389	154.04407	13.38195	252.12196	148.20149	4.29395	249.62187	157.66951	3.61139	
2589	21.567	388.01370	125.25928	21.43427	378.67755	127.55841	26.62018	356.89929	132.06042	32.16863	326.60251	141.33147	35.81229	293.64755	143.73233	25.64150	268.53476	126.27007	13.73198	256.58105	90.88132	7.10320	269.03046	48.51952	7.14234	291.73297	12.80425	5.34984	355.79984	119.26396	16.39940	349.75159	104.77618	13.48372	363.32169	103.42072	1.76912	354.88806	143.66290	19.65957	346.87466	154.21745	19.00477	343.89856	151.51505	2.73395	297.10403	135.72354	22.55283	310.17343	122.91299	28.43316	300.63522	119.60506	9.43101	309.62485	119.70899	12.60159	289.28470	150.29510	17.90926	273.17953	154.11819	13.35368	252.21211	148.32814	4.39696	249.57190	157.74741	3.66768	
2590	21.575	388.04184	125.15604	21.89623	378.72113	127.51079	27.01641	356.91708	132.04469	32.24352	326.63638	141.36957	35.82365	293.81335	143.86314	25.65034	268.58002	126.37090	13.74511	256.61450	90.98342	7.11885	268.99628	48.61881	7.18402	291.71585	12.81909	5.36445	355.85516	118.78342	16.68076	349.72476	104.84900	13.45070	363.33646	103.38132	1.79750	354.85553	143.60527	19.64460	346.89352	154.22057	19.03226	343.90366	151.51439	2.73463	297.30109	135.59843	22.54843	310.08459	122.74323	28.17066	300.38968	120.12592	9.02819	309.67874	119.71686	12.24116	289.33231	150.37373	17.87980	273.23413	154.17535	13.32495	252.30043	148.40840	4.46005	249.47652	157.75308	3.70093	
2591	21.583	388.05634	125.00965	22.48919	378.71460	127.42373	27.48660	356.87631	131.97760	32.31638	326.65244	141.39696	35.81732	293.89679	143.95694	25.67039	268.61514	126.44886	13.75551	256.65091	91.04725	7.12841	268.98273	48.67844	7.20467	291.70438	12.88188	5.39145	355.88062	118.48343	16.86724	349.72885	104.88026	13.46505	363.36707	103.28355	1.84859	354.75836	143.49492	19.55483	346.88785	154.20551	19.04994	343.90741	151.51245	2.73376	297.35281	135.47198	22.51528	310.00253	122.56121	27.88607	300.16345	120.57244	8.64067	309.79803	119.58692	11.85023	289.36426	150.41461	17.86159	273.27362	154.21997	13.30266	252.34979	148.44987	4.50361	249.40947	157.74399	3.72464	
2592	21.592	388.04456	124.81152	23.20846	378.69492	127.28867	28.04220	356.80032	131.89368	32.40459	326.64645	141.41086	35.78866	293.90552	144.01897	25.67447	268.65714	126.44389	13.75439	256.68732	91.08341	7.13999	268.97546	48.70921	7.21335	291.68323	12.99860	5.42736	355.86929	118.45433	16.92156	349.76590	104.83189	13.54209	363.40536	103.14673	1.91433	354.61237	143.34062	19.41639	346.86313	154.17230	19.07201	343.91904	151.51810	2.74824	297.32779	135.39696	22.46161	309.94632	122.36127	27.57367	299.95703	120.89264	8.29873	309.89526	119.39274	11.48889	289.39264	150.43604	17.85563	273.29645	154.25143	13.28498	252.34322	148.44475	4.51806	249.39420	157.72583	3.74800	
2593	21.600	388.02371	124.57533	24.03299	378.63577	127.11591	28.68554	356.68555	131.78859	32.50024	326.63412	141.41383	35.76488	293.86240	144.04187	25.66635	268.69208	126.43217	13.74895	256.71854	91.10058	7.15068	268.96826	48.72586	7.21915	291.67551	13.08947	5.45598	355.85873	118.57858	16.92359	349.80432	104.74057	13.62077	363.43494	103.05005	1.96331	354.45859	143.20380	19.28790	346.79166	154.12021	19.08764	343.92783	151.52480	2.76452	297.23108	135.38857	22.37700	309.92892	122.14507	27.24584	299.79773	121.11638	8.02634	309.83783	119.29438	11.12534	289.41193	150.44417	17.85567	273.30627	154.27405	13.27241	252.32954	148.43529	4.52829	249.38377	157.71820	3.76666	
2594	21.608	387.96286	124.29750	24.94127	378.53351	126.82572	29.38674	356.56027	131.70193	32.61777	326.60464	141.39886	35.74864	293.81409	144.04446	25.62850	268.71539	126.42621	13.74331	256.74643	91.10870	7.15900	268.96600	48.73306	7.22468	291.67181	13.15148	5.47273	355.83917	118.80169	16.91253	349.84714	104.60989	13.72365	363.45169	102.99442	1.98932	354.33945	143.08789	19.21351	346.70844	154.06244	19.10568	343.94476	151.53217	2.79219	297.15845	135.41806	22.25338	309.95410	121.91696	26.90742	299.69452	121.21085	7.83206	309.65710	119.25723	10.77951	289.42337	150.44673	17.85119	273.29108	154.33238	13.26842	252.31616	148.42542	4.53242	249.38493	157.72046	3.77540	
2595	21.617	387.87149	123.98245	25.90850	378.39590	126.40142	30.19458	356.41748	131.62283	32.76646	326.56442	141.36765	35.73838	293.77551	144.03748	25.58824	268.71896	126.42752	13.73900	256.77209	91.11229	7.16687	268.96475	48.73442	7.22904	291.67059	13.16253	5.47934	355.84570	118.94221	16.96846	349.88409	104.45716	13.81702	363.45154	102.99503	1.99260	354.27307	143.00816	19.22158	346.63010	153.99539	19.13277	343.96140	151.54057	2.82178	297.13757	135.47275	22.11184	310.01532	121.68317	26.59147	299.63046	121.27061	7.64661	309.42899	119.35389	10.46454	289.43622	150.46164	17.84995	273.26138	154.42334	13.26483	252.30272	148.41623	4.53322	249.38924	157.72943	3.77316	
2596	21.625	387.74585	123.64709	26.91629	378.20743	126.05121	30.99878	356.28702	131.55557	32.93703	326.50986	141.32118	35.72353	293.75439	144.02426	25.55101	268.70490	126.44260	13.73770	256.80783	91.05730	7.16483	268.96817	48.73691	7.23168	291.67581	13.11993	5.47529	355.87393	118.87492	17.14540	349.88693	104.37391	13.85836	363.45209	102.99579	1.99268	354.23798	142.93188	19.27427	346.57092	153.92422	19.16844	343.97775	151.54781	2.84983	297.14444	135.46782	21.99460	310.09964	121.46126	26.27015	299.59033	121.27150	7.44671	309.26361	119.46183	10.11971	289.43860	150.47861	17.84674	273.21805	154.54692	13.26102	252.30531	148.41151	4.51995	249.41188	157.74471	3.75582	
2597	21.633	387.59238	123.30862	27.93075	378.00565	125.69113	31.88908	356.16251	131.50546	33.13497	326.43839	141.25194	35.71637	293.75034	144.00597	25.52514	268.68558	126.41548	13.73612	256.84604	90.95876	7.15890	268.97110	48.73278	7.23928	291.68747	13.05509	5.46751	355.86963	118.73293	17.34649	349.88770	104.30509	13.88519	363.45410	102.99641	1.99180	354.22601	142.85858	19.38595	346.52719	153.84319	19.20306	343.98560	151.55272	2.86268	297.22104	135.41026	21.89322	310.19751	121.26823	25.97073	299.55728	121.21852	7.23345	309.22983	119.56052	9.79995	289.43433	150.50150	17.84529	273.17136	154.68045	13.25288	252.30624	148.41020	4.50860	249.42746	157.75374	3.74504	
2598	21.642	387.41599	122.99155	28.94501	377.80969	125.42304	32.76490	356.00787	131.43198	33.35551	326.34415	141.14684	35.70518	293.75766	143.98096	25.50072	268.66171	126.35345	13.73040	256.88745	90.81670	7.14719	268.97391	48.72726	7.24895	291.70633	12.97623	5.46584	355.82901	118.62719	17.50178	349.88281	104.25499	13.88689	363.45627	102.99488	1.99262	354.18515	142.77510	19.50638	346.50958	153.75984	19.23870	343.99515	151.54875	2.87176	297.33624	135.29512	21.82320	310.29218	121.11176	25.66241	299.52353	121.10718	7.01518	309.29868	119.64739	9.48441	289.42685	150.52679	17.84828	273.13461	154.75232	13.25977	252.31448	148.41606	4.50480	249.43068	157.75427	3.73559	
